<svg xmlns="http://www.w3.org/2000/svg" viewBox="0 0 70.73 191.61"><title>footie_logo</title><path d="M1758.78,286.57l-11.51-4.25-5.28-2.43a19.48,19.48,0,0,1-2.87-10.16c2.09-2.38,5.64-8.11,5.64-13.47,0-9.71-7.59-17.84-16.81-17.62-9.22-.22-16.81,7.92-16.81,17.62,0,5.37,3.54,11.1,5.64,13.47a19.48,19.48,0,0,1-2.87,10.16l-5.28,2.43-11.51,4.25c-4.2,1.62-3.08,15.21-2.58,16.6l5.44,5.39s8.31,24.31,8.52,25.73c0.24,1.66-2.76,21.36-.11,21.62,1.21,0.12,2.91,1.33,3,2.08s4.15,24.79,4,25.82c0,0-3.52,1.1-4.56,1.59s-9.53,8.39-9.66,9.26,6.57,31.91,7.41,32.43,17.81,0.23,19.34.21,18.53,0.29,19.34-.21,7.54-31.55,7.41-32.43-8.62-8.78-9.66-9.26-4.56-1.59-4.56-1.59c-0.14-1,3.9-25.07,4-25.82s1.82-2,3-2.08c2.65-.26-0.35-20-0.11-21.62,0.2-1.42,8.52-25.73,8.52-25.73l5.44-5.39C1761.86,301.78,1763,288.19,1758.78,286.57Z" transform="translate(-1692.58 -237.21)" style="fill:none;stroke:#fff;stroke-miterlimit:10;stroke-width:2.8499999046325684px"/><line x1="22.42" y1="146.29" x2="47.42" y2="146.29" style="fill:none;stroke:#fff;stroke-miterlimit:10;stroke-width:3px"/><polyline points="21.31 42.68 35.36 52.92 49.41 42.68" style="fill:none;stroke:#fff;stroke-miterlimit:10;stroke-width:2.8499999046325684px"/><line x1="15.42" y1="118.29" x2="55.42" y2="118.29" style="fill:none;stroke:#fff;stroke-miterlimit:10;stroke-width:3px"/><line x1="15.42" y1="98.29" x2="54.42" y2="98.29" style="fill:none;stroke:#fff;stroke-miterlimit:10;stroke-width:3px"/></svg>