<svg xmlns="http://www.w3.org/2000/svg" xmlns:xlink="http://www.w3.org/1999/xlink" viewBox="0 0 80.43 11.22"><defs><linearGradient id="a" x1="3.37" y1="9.53" x2="3.37" y2="0.21" gradientUnits="userSpaceOnUse"><stop offset="0" stop-color="#262626"/><stop offset="0.23" stop-color="#404040"/><stop offset="0.5" stop-color="#434345"/><stop offset="0.72" stop-color="#404040"/><stop offset="0.98" stop-color="#242424"/></linearGradient><linearGradient id="b" x1="3.37" y1="6.37" x2="3.37" y2="3.37" gradientUnits="userSpaceOnUse"><stop offset="0" stop-opacity="0"/><stop offset="0.26" stop-color="#010200" stop-opacity="0.04"/><stop offset="0.36" stop-color="#060902" stop-opacity="0.18"/><stop offset="0.42" stop-color="#0e1404" stop-opacity="0.44"/><stop offset="0.48" stop-color="#192508" stop-opacity="0.79"/><stop offset="0.5" stop-color="#202f0a"/><stop offset="0.52" stop-color="#192508" stop-opacity="0.79"/><stop offset="0.55" stop-color="#0e1404" stop-opacity="0.44"/><stop offset="0.6" stop-color="#060902" stop-opacity="0.18"/><stop offset="0.66" stop-color="#010200" stop-opacity="0.04"/><stop offset="0.85" stop-opacity="0"/></linearGradient><linearGradient id="c" x1="44.34" y1="9.53" x2="44.34" y2="0.21" xlink:href="#a"/><linearGradient id="d" x1="44.34" y1="6.37" x2="44.34" y2="3.37" xlink:href="#b"/><linearGradient id="e" x1="60.71" y1="9.53" x2="60.71" y2="0.21" xlink:href="#a"/><linearGradient id="f" x1="60.71" y1="6.37" x2="60.71" y2="3.37" xlink:href="#b"/><linearGradient id="g" x1="52.5" y1="9.53" x2="52.5" y2="0.21" xlink:href="#a"/><linearGradient id="h" x1="52.5" y1="6.37" x2="52.5" y2="3.37" xlink:href="#b"/><linearGradient id="i" x1="19.74" y1="9.53" x2="19.74" y2="0.21" xlink:href="#a"/><linearGradient id="j" x1="19.74" y1="6.37" x2="19.74" y2="3.37" xlink:href="#b"/><linearGradient id="k" x1="27.97" y1="9.53" x2="27.97" y2="0.21" xlink:href="#a"/><linearGradient id="l" x1="27.97" y1="6.37" x2="27.97" y2="3.37" xlink:href="#b"/><linearGradient id="m" x1="68.91" y1="9.53" x2="68.91" y2="0.21" xlink:href="#a"/><linearGradient id="n" x1="68.91" y1="6.37" x2="68.91" y2="3.37" xlink:href="#b"/><linearGradient id="o" x1="77.06" y1="9.53" x2="77.06" y2="0.21" xlink:href="#a"/><linearGradient id="p" x1="77.06" y1="6.37" x2="77.06" y2="3.37" xlink:href="#b"/><linearGradient id="q" x1="36.12" y1="9.53" x2="36.12" y2="0.21" xlink:href="#a"/><linearGradient id="r" x1="36.12" y1="6.37" x2="36.12" y2="3.37" xlink:href="#b"/><linearGradient id="s" x1="11.55" y1="9.53" x2="11.55" y2="0.21" xlink:href="#a"/><linearGradient id="t" x1="11.55" y1="6.37" x2="11.55" y2="3.37" xlink:href="#b"/></defs><title>scoreboard</title><rect width="6.73" height="9.73" rx="1.57" ry="1.57" style="fill:#fafdfc"/><rect x="0.21" y="0.21" width="6.3" height="9.32" rx="1.28" ry="1.28" style="fill:url(#a)"/><rect x="0.21" y="0.21" width="6.3" height="9.32" rx="1.28" ry="1.28" style="fill:#009247;opacity:0.45"/><text transform="translate(0.9 7.94)" style="font-size:9.1941499710083px;fill:#fff;font-family:Helvetica Neue">S</text><line x1="0.21" y1="4.87" x2="6.52" y2="4.87" style="fill:none;stroke-miterlimit:10;stroke-width:3px;opacity:0.81;stroke:url(#b)"/><rect x="40.98" width="6.73" height="9.73" rx="1.57" ry="1.57" style="fill:#fafdfc"/><rect x="41.19" y="0.21" width="6.3" height="9.32" rx="1.28" ry="1.28" style="fill:url(#c)"/><rect x="41.19" y="0.21" width="6.3" height="9.32" rx="1.28" ry="1.28" style="fill:#009247;opacity:0.45"/><text transform="translate(41.7 7.94)" style="font-size:9.1941499710083px;fill:#fff;font-family:Helvetica Neue">B</text><line x1="41.19" y1="4.87" x2="47.5" y2="4.87" style="fill:none;stroke-miterlimit:10;stroke-width:3px;opacity:0.81;stroke:url(#d)"/><rect x="57.34" width="6.73" height="9.73" rx="1.57" ry="1.57" style="fill:#fafdfc"/><rect x="57.55" y="0.21" width="6.3" height="9.32" rx="1.28" ry="1.28" style="fill:url(#e)"/><rect x="57.55" y="0.21" width="6.3" height="9.32" rx="1.28" ry="1.28" style="fill:#009247;opacity:0.45"/><text transform="translate(58.14 7.94)" style="font-size:9.1941499710083px;fill:#fff;font-family:Helvetica Neue">A</text><line x1="57.55" y1="4.87" x2="63.86" y2="4.87" style="fill:none;stroke-miterlimit:10;stroke-width:3px;opacity:0.81;stroke:url(#f)"/><rect x="49.13" width="6.73" height="9.73" rx="1.57" ry="1.57" style="fill:#fafdfc"/><rect x="49.35" y="0.21" width="6.3" height="9.32" rx="1.28" ry="1.28" style="fill:url(#g)"/><rect x="49.35" y="0.21" width="6.3" height="9.32" rx="1.28" ry="1.28" style="fill:#009247;opacity:0.45"/><text transform="translate(50.03 7.94)" style="font-size:9.1941499710083px;fill:#fff;font-family:Helvetica Neue">O</text><line x1="49.35" y1="4.87" x2="55.65" y2="4.87" style="fill:none;stroke-miterlimit:10;stroke-width:3px;opacity:0.81;stroke:url(#h)"/><rect x="16.38" width="6.73" height="9.73" rx="1.57" ry="1.57" style="fill:#fafdfc"/><rect x="16.59" y="0.21" width="6.3" height="9.32" rx="1.28" ry="1.28" style="fill:url(#i)"/><rect x="16.59" y="0.21" width="6.3" height="9.32" rx="1.28" ry="1.28" style="fill:#009247;opacity:0.45"/><text transform="translate(17.27 7.94)" style="font-size:9.1941499710083px;fill:#fff;font-family:Helvetica Neue">O</text><line x1="16.59" y1="4.87" x2="22.9" y2="4.87" style="fill:none;stroke-miterlimit:10;stroke-width:3px;opacity:0.81;stroke:url(#j)"/><rect x="24.6" width="6.73" height="9.73" rx="1.57" ry="1.57" style="fill:#fafdfc"/><rect x="24.81" y="0.21" width="6.3" height="9.32" rx="1.28" ry="1.28" style="fill:url(#k)"/><rect x="24.81" y="0.21" width="6.3" height="9.32" rx="1.28" ry="1.28" style="fill:#009247;opacity:0.45"/><text transform="translate(25.33 7.94)" style="font-size:9.1941499710083px;fill:#fff;font-family:Helvetica Neue">R</text><line x1="24.81" y1="4.87" x2="31.12" y2="4.87" style="fill:none;stroke-miterlimit:10;stroke-width:3px;opacity:0.81;stroke:url(#l)"/><rect x="65.54" width="6.73" height="9.73" rx="1.57" ry="1.57" style="fill:#fafdfc"/><rect x="65.76" y="0.21" width="6.3" height="9.32" rx="1.28" ry="1.28" style="fill:url(#m)"/><rect x="65.76" y="0.21" width="6.3" height="9.32" rx="1.28" ry="1.28" style="fill:#009247;opacity:0.45"/><text transform="translate(66.27 7.94)" style="font-size:9.1941499710083px;fill:#fff;font-family:Helvetica Neue">R</text><line x1="65.76" y1="4.87" x2="72.06" y2="4.87" style="fill:none;stroke-miterlimit:10;stroke-width:3px;opacity:0.81;stroke:url(#n)"/><rect x="73.7" width="6.73" height="9.73" rx="1.57" ry="1.57" style="fill:#fafdfc"/><rect x="73.91" y="0.21" width="6.3" height="9.32" rx="1.28" ry="1.28" style="fill:url(#o)"/><rect x="73.91" y="0.21" width="6.3" height="9.32" rx="1.28" ry="1.28" style="fill:#009247;opacity:0.45"/><text transform="translate(74.59 7.94)" style="font-size:9.1941499710083px;fill:#fff;font-family:Helvetica Neue">D</text><line x1="73.91" y1="4.87" x2="80.22" y2="4.87" style="fill:none;stroke-miterlimit:10;stroke-width:3px;opacity:0.81;stroke:url(#p)"/><rect x="32.75" width="6.73" height="9.73" rx="1.57" ry="1.57" style="fill:#fafdfc"/><rect x="32.97" y="0.21" width="6.3" height="9.32" rx="1.28" ry="1.28" style="fill:url(#q)"/><rect x="32.97" y="0.21" width="6.3" height="9.32" rx="1.28" ry="1.28" style="fill:#009247;opacity:0.45"/><text transform="translate(33.65 7.94)" style="font-size:9.1941499710083px;fill:#fff;font-family:Helvetica Neue">E</text><line x1="32.97" y1="4.87" x2="39.27" y2="4.87" style="fill:none;stroke-miterlimit:10;stroke-width:3px;opacity:0.81;stroke:url(#r)"/><rect x="8.19" width="6.73" height="9.73" rx="1.57" ry="1.57" style="fill:#fafdfc"/><rect x="8.4" y="0.21" width="6.3" height="9.32" rx="1.28" ry="1.28" style="fill:url(#s)"/><rect x="8.4" y="0.21" width="6.3" height="9.32" rx="1.28" ry="1.28" style="fill:#009247;opacity:0.45"/><text transform="translate(9.09 7.94)" style="font-size:9.1941499710083px;fill:#fff;font-family:Helvetica Neue">C</text><line x1="8.4" y1="4.87" x2="14.71" y2="4.87" style="fill:none;stroke-miterlimit:10;stroke-width:3px;opacity:0.81;stroke:url(#t)"/></svg>