<svg xmlns="http://www.w3.org/2000/svg" viewBox="0 0 444.6 125.82"><title>footie_logo</title><path d="M32.78,80.07H32.61c-1.19,14.28-1.19,28.73-1.36,41.65-8.84.85-27.71,1-29.58,0l-0.17-.17c0-41.14.34-62.22,0.34-115.09V6.29c11.73-2,56.95-5.1,76-.34,0,6,.51,19.38,0,25.16-12.24.85-31.28,1.36-45.39,2.72a17.5,17.5,0,0,0,.34,15.3,0.34,0.34,0,0,0,.34.17c6.46,0.85,16.32.51,21.42,0C55.9,52.7,54.2,69,55,77.18a0.43,0.43,0,0,1-.51.34C47.57,78.71,39.58,78.88,32.78,80.07Z" style="fill:none;stroke:#f1f2f2;stroke-width:3px"/><path d="M156.54,31.79a139.12,139.12,0,0,1,.34,16.83c-0.68,12.07,0,23.12-.85,34.85l-0.51,5.61c-0.51,8-2.38,16.32-6.46,22.95-3.91,5.44-10.54,8.5-17.51,10.37a53,53,0,0,1-19.38,1.7c-9.35-.85-18.36-2.89-22.44-11.9-3.23-5.61-3.91-12.24-4.08-18.87C85,75.65,83.61,57.8,84.8,40c0.17-10.2,2-21.08,9-29.07a17.3,17.3,0,0,1,3.91-3.06c15-7.31,36-7,49.13,3.06a24.93,24.93,0,0,1,7,10.37A38.53,38.53,0,0,1,156.54,31.79ZM135.29,51.17c0-.17-0.51-5.78-0.68-9.69C134.1,35.19,131,29.58,125.77,27c-4.59-1.87-9.69-.34-13.26,2.38a22.48,22.48,0,0,0-8,11.73c-1.87,8.67-2,18.36-1.53,27.88,1.19,8,1,16.49,3.23,24,4.42,9,18.7,10,25.67,2.21,4.25-5.61,2.55-5.61,3.4-15.47,0.17-4.59.34-8.33,0.34-8.84V62.73Z" style="fill:none;stroke:#f1f2f2;stroke-width:3px"/><path d="M239.33,31.79a139.12,139.12,0,0,1,.34,16.83c-0.68,12.07,0,23.12-.85,34.85l-0.51,5.61c-0.51,8-2.38,16.32-6.46,22.95-3.91,5.44-10.54,8.5-17.51,10.37A53,53,0,0,1,195,124.1c-9.35-.85-18.36-2.89-22.44-11.9-3.23-5.61-3.91-12.24-4.08-18.87-0.68-17.68-2-35.53-.85-53.38,0.17-10.2,2-21.08,9-29.07a17.3,17.3,0,0,1,3.91-3.06c15-7.31,36-7,49.13,3.06a24.93,24.93,0,0,1,7,10.37A38.53,38.53,0,0,1,239.33,31.79ZM218.08,51.17c0-.17-0.51-5.78-0.68-9.69-0.51-6.29-3.57-11.9-8.84-14.45-4.59-1.87-9.69-.34-13.26,2.38a22.48,22.48,0,0,0-8,11.73c-1.87,8.67-2,18.36-1.53,27.88,1.19,8,1,16.49,3.23,24,4.42,9,18.7,10,25.67,2.21,4.25-5.61,2.55-5.61,3.4-15.47,0.17-4.59.34-8.33,0.34-8.84V62.73Z" style="fill:none;stroke:#f1f2f2;stroke-width:3px"/><path d="M318.54,30.09c-4.25-.85-10-0.51-20.74,0h-0.51c0,0.17-.17.34-0.17,0.51-0.68,3.23-.51,15.64.85,89.93v0.34c-8.33,1.36-19.72-.17-27.88,1.19-0.51-2,1.53-27.2-1.19-90.61l-0.17-.17c-5.27-2.72-17.68-1.19-20.4-2-0.85-1.7-1.53-16-.68-26.69,0-.17-0.17-0.17-0.17-0.34,23.12-.17,48.45-1,71.74,1.53A137.86,137.86,0,0,1,318.54,30.09Z" style="fill:none;stroke:#f1f2f2;stroke-width:3px"/><path d="M360,2.38V3.06c0,38.93-2.38,79.39-.17,118-3.74,3.74-26.18.17-30.94,1.53,3.23-41-2.72-82.62,1.36-120.7V1.53c1.19-.17,5.44.34,7,0.34,4.08,0.17,8.5.68,18.7,0.51H360Z" style="fill:none;stroke:#f1f2f2;stroke-width:3px"/><path d="M442.81,99.11c0.51,7.31.51,15.47-1.36,22.27-23.12-.17-47.77,1.53-69.7-0.34,0-39.44-2-77.35.17-116.28,26.35-1.36,70.38-2,70.38-1,1.19,8,0,16.15,0,24.14v0.17c-14.45,3.23-29.58.68-44.54,2h-0.51l-0.17.17c0.17,6.63-1.36,13.77.17,19.89l0.17,0.17c6.8,0.51,13.94.34,20.91,0.51V51c1.19,7.65.17,15.3,0.34,23.63-7,1.87-18.19,0-20.57,1.87-1.19,6.63-.51,15.81,0,21.25l0.17,0.17c15,0,29.07,1.36,44.54.85v0.34Z" style="fill:none;stroke:#f1f2f2;stroke-width:3px"/></svg>