<svg xmlns="http://www.w3.org/2000/svg" xmlns:xlink="http://www.w3.org/1999/xlink" viewBox="0 0 2072.22 683.33"><defs><pattern id="a" x="26.96" y="-918.33" width="314.67" height="502.18" patternUnits="userSpaceOnUse" viewBox="0 0 314.67 502.18"><rect width="314.67" height="502.18" style="fill:none"/><polygon points="186.22 -62.69 222.02 -123.03 292.18 -122.2 326.53 -61.03 290.74 -0.69 220.58 -1.51 186.22 -62.69" style="fill:none;stroke:#343534;stroke-miterlimit:10;stroke-width:5px"/><polygon points="327.18 78.46 306.3 11.48 353.86 -40.09 422.3 -24.7 443.19 42.28 395.63 93.86 327.18 78.46" style="fill:none;stroke:#343534;stroke-miterlimit:10;stroke-width:5px"/><polygon points="252.92 122.45 197.81 81.41 219.82 16.32 288.53 17.13 308.99 82.73 252.92 122.45" style="fill:none;stroke:#343534;stroke-miterlimit:10;stroke-width:5px"/><polygon points="-128.45 -62.69 -92.65 -123.03 -22.5 -122.2 11.86 -61.03 -23.94 -0.69 -94.09 -1.51 -128.45 -62.69" style="fill:none;stroke:#343534;stroke-miterlimit:10;stroke-width:5px"/><polygon points="12.51 78.46 -8.38 11.48 39.18 -40.09 107.63 -24.7 128.52 42.28 80.96 93.86 12.51 78.46" style="fill:none;stroke:#343534;stroke-miterlimit:10;stroke-width:5px"/><polygon points="28.89 188.4 64.68 128.06 134.84 128.89 169.2 190.06 133.4 250.4 63.24 249.57 28.89 188.4" style="fill:none;stroke:#343534;stroke-miterlimit:10;stroke-width:5px"/><polygon points="169.85 329.55 148.96 262.57 196.52 210.99 264.97 226.39 285.86 293.37 238.3 344.95 169.85 329.55" style="fill:none;stroke:#343534;stroke-miterlimit:10;stroke-width:5px"/><polygon points="95.59 373.54 40.48 332.5 62.48 267.4 131.19 268.22 151.65 333.81 95.59 373.54" style="fill:none;stroke:#343534;stroke-miterlimit:10;stroke-width:5px"/><polygon points="186.22 439.49 222.02 379.15 292.18 379.98 326.53 441.15 290.74 501.49 220.58 500.66 186.22 439.49" style="fill:none;stroke:#343534;stroke-miterlimit:10;stroke-width:5px"/><polygon points="327.18 580.64 306.3 513.66 353.86 462.08 422.3 477.48 443.19 544.46 395.63 596.04 327.18 580.64" style="fill:none;stroke:#343534;stroke-miterlimit:10;stroke-width:5px"/><polygon points="-128.45 439.49 -92.65 379.15 -22.5 379.98 11.86 441.15 -23.94 501.49 -94.09 500.66 -128.45 439.49" style="fill:none;stroke:#343534;stroke-miterlimit:10;stroke-width:5px"/><polygon points="12.51 580.64 -8.38 513.66 39.18 462.08 107.63 477.48 128.52 544.46 80.96 596.04 12.51 580.64" style="fill:none;stroke:#343534;stroke-miterlimit:10;stroke-width:5px"/></pattern></defs><title>pattern1</title><rect width="2072.22" height="683.33" style="fill:url(#a)"/></svg>