<svg xmlns="http://www.w3.org/2000/svg" xmlns:xlink="http://www.w3.org/1999/xlink" width="2072.22" height="683.33" viewBox="0 0 2072.22 683.33"><defs><pattern id="a" x="26.96" y="23.56" width="341.4" height="316.57" patternUnits="userSpaceOnUse" viewBox="0 0 341.4 316.57"><rect width="341.4" height="316.57" style="fill:none"/><path d="M-2.18-138.55l-12,2.38-5.77.68a19.48,19.48,0,0,1-7.75-7.16c0.54-3.12.58-9.86-2.22-14.43-5.07-8.28-15.79-11.26-23.54-6.26-8,4.62-10.21,15.53-5.14,23.81,2.8,4.58,8.81,7.62,11.84,8.55A19.48,19.48,0,0,1-44-120.83L-47.2-116l-7.6,9.63c-2.74,3.58,5.31,14.58,6.46,15.51l7.45,1.76s19.77,16.4,20.69,17.51C-19.12-70.3-11.4-51.92-9-53.08c1.1-.53,3.18-0.39,3.67.19s16.48,19,16.9,19.93c0,0-2.43,2.78-3.06,3.73S4.75-17.11,5.1-16.29,27.35,7.5,28.34,7.5,43.66-1.59,44.95-2.41s16-9.43,16.39-10.27-10-30.85-10.6-31.53-11.94-3-13.07-2.86S33-46,33-46c-0.66-.81-9.75-23.42-10-24.12s0.53-2.62,1.5-3.36C26.53-75.12,13.69-90.37,13-91.91c-0.57-1.32-6.16-26.39-6.16-26.39l1.82-7.44C8.39-127.18,2.25-139.36-2.18-138.55ZM32.88-46.22l-21.33,13M-20-135.49l-6.64,16.06L-44-120.83m68.2,47.07L-9-53.4M13.8-90.82L-19.47-70.46" style="fill:none;stroke:#3f403f;stroke-miterlimit:10;stroke-width:3px"/><path d="M168.52-59.41l-12,2.38-5.77.68A19.48,19.48,0,0,1,143-63.51c0.54-3.12.58-9.86-2.22-14.43-5.07-8.28-15.79-11.26-23.54-6.26-8,4.62-10.21,15.53-5.14,23.81,2.8,4.58,8.81,7.62,11.84,8.55a19.48,19.48,0,0,1,2.85,10.16l-3.24,4.83-7.6,9.63c-2.74,3.58,5.31,14.58,6.46,15.51l7.45,1.76s19.77,16.4,20.69,17.51c1.07,1.29,8.79,19.67,11.19,18.5,1.1-.53,3.18-0.39,3.67.19s16.48,19,16.9,19.93c0,0-2.43,2.78-3.06,3.73S175.45,62,175.8,62.85,198.05,86.64,199,86.64s15.31-9.09,16.61-9.91,16-9.43,16.39-10.27-10-30.85-10.6-31.53-11.94-3-13.07-2.86-4.71,1-4.71,1C203,32.29,193.9,9.68,193.61,9s0.53-2.62,1.5-3.36c2.12-1.6-10.72-16.85-11.38-18.39-0.57-1.32-6.16-26.39-6.16-26.39l1.82-7.44C179.08-48,173-60.22,168.52-59.41Zm35.06,92.34L182.25,46M150.71-56.35l-6.64,16.06-17.33-1.4m68.2,47.07L161.67,25.74M184.5-11.67L151.23,8.68" style="fill:none;stroke:#3f403f;stroke-miterlimit:10;stroke-width:3px"/><path d="M339.22-138.55l-12,2.38-5.77.68a19.48,19.48,0,0,1-7.75-7.16c0.54-3.12.58-9.86-2.22-14.43-5.07-8.28-15.79-11.26-23.54-6.26-8,4.62-10.21,15.53-5.14,23.81,2.8,4.58,8.81,7.62,11.84,8.55a19.48,19.48,0,0,1,2.85,10.16L294.2-116l-7.6,9.63c-2.74,3.58,5.31,14.58,6.46,15.51l7.45,1.76s19.77,16.4,20.69,17.51c1.07,1.29,8.79,19.67,11.19,18.5,1.1-.53,3.18-0.39,3.67.19S352.54-33.91,353-33c0,0-2.43,2.78-3.06,3.73s-3.75,12.12-3.4,12.94S368.75,7.5,369.74,7.5s15.31-9.09,16.61-9.91,16-9.43,16.39-10.27-10-30.85-10.6-31.53-11.94-3-13.07-2.86-4.71,1-4.71,1c-0.66-.81-9.75-23.42-10-24.12s0.53-2.62,1.5-3.36c2.12-1.6-10.72-16.85-11.38-18.39-0.57-1.32-6.16-26.39-6.16-26.39l1.82-7.44C349.78-127.18,343.65-139.36,339.22-138.55Zm35.06,92.34L353-33.17M321.41-135.49l-6.64,16.06-17.33-1.4m68.2,47.07L332.37-53.4M355.2-90.82L321.93-70.46" style="fill:none;stroke:#3f403f;stroke-miterlimit:10;stroke-width:3px"/><path d="M-2.18,19.73l-12,2.38-5.77.68a19.48,19.48,0,0,1-7.75-7.16c0.54-3.12.58-9.86-2.22-14.43C-35-7.08-45.75-10.06-53.5-5.06c-8,4.62-10.21,15.53-5.14,23.81,2.8,4.58,8.81,7.62,11.84,8.55A19.48,19.48,0,0,1-44,37.46l-3.24,4.83-7.6,9.63c-2.74,3.58,5.31,14.58,6.46,15.51l7.45,1.76s19.77,16.4,20.69,17.51C-19.12,88-11.4,106.37-9,105.2c1.1-.53,3.18-0.39,3.67.19s16.48,19,16.9,19.93c0,0-2.43,2.78-3.06,3.73S4.75,141.18,5.1,142s22.26,23.79,23.24,23.79,15.31-9.09,16.61-9.91,16-9.43,16.39-10.27-10-30.85-10.6-31.53-11.94-3-13.07-2.86-4.71,1-4.71,1c-0.66-.81-9.75-23.42-10-24.12s0.53-2.62,1.5-3.36C26.53,83.16,13.69,67.92,13,66.38,12.46,65.06,6.87,40,6.87,40l1.82-7.44C8.39,31.1,2.25,18.93-2.18,19.73Zm35.06,92.34-21.33,13M-20,22.79l-6.64,16.06L-44,37.46m68.2,47.07L-9,104.88M13.8,67.47L-19.47,87.82" style="fill:none;stroke:#3f403f;stroke-miterlimit:10;stroke-width:3px"/><path d="M168.52,98.88l-12,2.38-5.77.68A19.48,19.48,0,0,1,143,94.78c0.54-3.12.58-9.86-2.22-14.43-5.07-8.28-15.79-11.26-23.54-6.26-8,4.62-10.21,15.53-5.14,23.81,2.8,4.58,8.81,7.62,11.84,8.55a19.48,19.48,0,0,1,2.85,10.16l-3.24,4.83-7.6,9.63c-2.74,3.58,5.31,14.58,6.46,15.51l7.45,1.76s19.77,16.4,20.69,17.51c1.07,1.29,8.79,19.67,11.19,18.5,1.1-.53,3.18-0.39,3.67.19s16.48,19,16.9,19.93c0,0-2.43,2.78-3.06,3.73s-3.75,12.12-3.4,12.94,22.26,23.79,23.24,23.79,15.31-9.09,16.61-9.91,16-9.43,16.39-10.27-10-30.85-10.6-31.53-11.94-3-13.07-2.86-4.71,1-4.71,1c-0.66-.81-9.75-23.42-10-24.12s0.53-2.62,1.5-3.36c2.12-1.6-10.72-16.85-11.38-18.39-0.57-1.32-6.16-26.39-6.16-26.39l1.82-7.44C179.08,110.25,173,98.07,168.52,98.88Zm35.06,92.34-21.33,13M150.71,101.94L144.07,118l-17.33-1.4m68.2,47.07L161.67,184m22.83-37.41L151.23,167" style="fill:none;stroke:#3f403f;stroke-miterlimit:10;stroke-width:3px"/><path d="M339.22,19.73l-12,2.38-5.77.68a19.48,19.48,0,0,1-7.75-7.16c0.54-3.12.58-9.86-2.22-14.43-5.07-8.28-15.79-11.26-23.54-6.26-8,4.62-10.21,15.53-5.14,23.81,2.8,4.58,8.81,7.62,11.84,8.55a19.48,19.48,0,0,1,2.85,10.16l-3.24,4.83-7.6,9.63c-2.74,3.58,5.31,14.58,6.46,15.51l7.45,1.76s19.77,16.4,20.69,17.51c1.07,1.29,8.79,19.67,11.19,18.5,1.1-.53,3.18-0.39,3.67.19s16.48,19,16.9,19.93c0,0-2.43,2.78-3.06,3.73s-3.75,12.12-3.4,12.94,22.26,23.79,23.24,23.79,15.31-9.09,16.61-9.91,16-9.43,16.39-10.27-10-30.85-10.6-31.53-11.94-3-13.07-2.86-4.71,1-4.71,1c-0.66-.81-9.75-23.42-10-24.12s0.53-2.62,1.5-3.36c2.12-1.6-10.72-16.85-11.38-18.39C353.86,65.06,348.26,40,348.26,40l1.82-7.44C349.78,31.1,343.65,18.93,339.22,19.73Zm35.06,92.34-21.33,13M321.41,22.79l-6.64,16.06-17.33-1.4m68.2,47.07-33.27,20.35M355.2,67.47L321.93,87.82" style="fill:none;stroke:#3f403f;stroke-miterlimit:10;stroke-width:3px"/><path d="M-2.18,178l-12,2.38-5.77.68a19.48,19.48,0,0,1-7.75-7.16c0.54-3.12.58-9.86-2.22-14.43-5.07-8.28-15.79-11.26-23.54-6.26-8,4.62-10.21,15.53-5.14,23.81,2.8,4.58,8.81,7.62,11.84,8.55A19.48,19.48,0,0,1-44,195.75l-3.24,4.83-7.6,9.63c-2.74,3.58,5.31,14.58,6.46,15.51l7.45,1.76s19.77,16.4,20.69,17.51c1.07,1.29,8.79,19.67,11.19,18.5,1.1-.53,3.18-0.39,3.67.19s16.48,19,16.9,19.93c0,0-2.43,2.78-3.06,3.73s-3.75,12.12-3.4,12.94,22.26,23.79,23.24,23.79,15.31-9.09,16.61-9.91,16-9.43,16.39-10.27-10-30.85-10.6-31.53-11.94-3-13.07-2.86-4.71,1-4.71,1c-0.66-.81-9.75-23.42-10-24.12s0.53-2.62,1.5-3.36c2.12-1.6-10.72-16.85-11.38-18.39-0.57-1.32-6.16-26.39-6.16-26.39l1.82-7.44C8.39,189.39,2.25,177.21-2.18,178Zm35.06,92.34-21.33,13M-20,181.08l-6.64,16.06L-44,195.75m68.2,47.07L-9,263.17M13.8,225.76l-33.27,20.35" style="fill:none;stroke:#3f403f;stroke-miterlimit:10;stroke-width:3px"/><path d="M168.52,257.16l-12,2.38-5.77.68a19.48,19.48,0,0,1-7.75-7.16c0.54-3.12.58-9.86-2.22-14.43-5.07-8.28-15.79-11.26-23.54-6.26-8,4.62-10.21,15.53-5.14,23.81,2.8,4.58,8.81,7.62,11.84,8.55a19.48,19.48,0,0,1,2.85,10.16l-3.24,4.83-7.6,9.63c-2.74,3.58,5.31,14.58,6.46,15.51l7.45,1.76s19.77,16.4,20.69,17.51c1.07,1.29,8.79,19.67,11.19,18.5,1.1-.53,3.18-0.39,3.67.19s16.48,19,16.9,19.93c0,0-2.43,2.78-3.06,3.73s-3.75,12.12-3.4,12.94,22.26,23.79,23.24,23.79,15.31-9.09,16.61-9.91,16-9.43,16.39-10.27-10-30.85-10.6-31.53-11.94-3-13.07-2.86-4.71,1-4.71,1c-0.66-.81-9.75-23.42-10-24.12s0.53-2.62,1.5-3.36c2.12-1.6-10.72-16.85-11.38-18.39-0.57-1.32-6.16-26.39-6.16-26.39l1.82-7.44C179.08,268.54,173,256.36,168.52,257.16Zm35.06,92.34-21.33,13M150.71,260.23l-6.64,16.06-17.33-1.4M194.94,322l-33.27,20.35M184.5,304.9l-33.27,20.35" style="fill:none;stroke:#3f403f;stroke-miterlimit:10;stroke-width:3px"/><path d="M339.22,178l-12,2.38-5.77.68a19.48,19.48,0,0,1-7.75-7.16c0.54-3.12.58-9.86-2.22-14.43-5.07-8.28-15.79-11.26-23.54-6.26-8,4.62-10.21,15.53-5.14,23.81,2.8,4.58,8.81,7.62,11.84,8.55a19.48,19.48,0,0,1,2.85,10.16l-3.24,4.83-7.6,9.63c-2.74,3.58,5.31,14.58,6.46,15.51l7.45,1.76s19.77,16.4,20.69,17.51c1.07,1.29,8.79,19.67,11.19,18.5,1.1-.53,3.18-0.39,3.67.19s16.48,19,16.9,19.93c0,0-2.43,2.78-3.06,3.73s-3.75,12.12-3.4,12.94,22.26,23.79,23.24,23.79,15.31-9.09,16.61-9.91,16-9.43,16.39-10.27-10-30.85-10.6-31.53-11.94-3-13.07-2.86-4.71,1-4.71,1c-0.66-.81-9.75-23.42-10-24.12s0.53-2.62,1.5-3.36c2.12-1.6-10.72-16.85-11.38-18.39-0.57-1.32-6.16-26.39-6.16-26.39l1.82-7.44C349.78,189.39,343.65,177.21,339.22,178Zm35.06,92.34L353,283.4M321.41,181.08l-6.64,16.06-17.33-1.4m68.2,47.07-33.27,20.35m22.83-37.41-33.27,20.35" style="fill:none;stroke:#3f403f;stroke-miterlimit:10;stroke-width:3px"/><path d="M-2.18,336.31l-12,2.38-5.77.68a19.48,19.48,0,0,1-7.75-7.16c0.54-3.12.58-9.86-2.22-14.43-5.07-8.28-15.79-11.26-23.54-6.26-8,4.62-10.21,15.53-5.14,23.81,2.8,4.58,8.81,7.62,11.84,8.55A19.48,19.48,0,0,1-44,354l-3.24,4.83-7.6,9.63c-2.74,3.58,5.31,14.58,6.46,15.51l7.45,1.76s19.77,16.4,20.69,17.51c1.07,1.29,8.79,19.67,11.19,18.5,1.1-.53,3.18-0.39,3.67.19s16.48,19,16.9,19.93c0,0-2.43,2.78-3.06,3.73s-3.75,12.12-3.4,12.94,22.26,23.79,23.24,23.79,15.31-9.09,16.61-9.91,16-9.43,16.39-10.27-10-30.85-10.6-31.53-11.94-3-13.07-2.86-4.71,1-4.71,1c-0.66-.81-9.75-23.42-10-24.12s0.53-2.62,1.5-3.36C26.53,399.74,13.69,384.49,13,383c-0.57-1.32-6.16-26.39-6.16-26.39l1.82-7.44C8.39,347.68,2.25,335.5-2.18,336.31Zm35.06,92.34-21.33,13M-20,339.37l-6.64,16.06L-44,354m68.2,47.07L-9,421.46M13.8,384L-19.47,404.4" style="fill:none;stroke:#3f403f;stroke-miterlimit:10;stroke-width:3px"/><path d="M339.22,336.31l-12,2.38-5.77.68a19.48,19.48,0,0,1-7.75-7.16c0.54-3.12.58-9.86-2.22-14.43-5.07-8.28-15.79-11.26-23.54-6.26-8,4.62-10.21,15.53-5.14,23.81,2.8,4.58,8.81,7.62,11.84,8.55A19.48,19.48,0,0,1,297.44,354l-3.24,4.83-7.6,9.63c-2.74,3.58,5.31,14.58,6.46,15.51l7.45,1.76s19.77,16.4,20.69,17.51c1.07,1.29,8.79,19.67,11.19,18.5,1.1-.53,3.18-0.39,3.67.19s16.48,19,16.9,19.93c0,0-2.43,2.78-3.06,3.73s-3.75,12.12-3.4,12.94,22.26,23.79,23.24,23.79,15.31-9.09,16.61-9.91,16-9.43,16.39-10.27-10-30.85-10.6-31.53-11.94-3-13.07-2.86-4.71,1-4.71,1c-0.66-.81-9.75-23.42-10-24.12s0.53-2.62,1.5-3.36c2.12-1.6-10.72-16.85-11.38-18.39-0.57-1.32-6.16-26.39-6.16-26.39l1.82-7.44C349.78,347.68,343.65,335.5,339.22,336.31Zm35.06,92.34-21.33,13M321.41,339.37l-6.64,16.06L297.44,354m68.2,47.07-33.27,20.35M355.2,384L321.93,404.4" style="fill:none;stroke:#3f403f;stroke-miterlimit:10;stroke-width:3px"/></pattern></defs><title>pattern</title><rect width="2072.22" height="683.33" style="fill:url(#a)"/></svg>